<svg width="42" height="35" viewBox="0 0 42 35" fill="none" xmlns="http://www.w3.org/2000/svg">
<path id="&#226;&#128;&#156;" d="M17.5461 0.33954L11.1661 24.7595L9.4061 16.5095C11.9728 16.5095 14.0994 17.3162 15.7861 18.9295C17.4728 20.5429 18.3161 22.7062 18.3161 25.4195C18.3161 28.1329 17.4728 30.3329 15.7861 32.0195C14.0994 33.6329 12.0094 34.4395 9.51609 34.4395C6.87609 34.4395 4.71276 33.5962 3.02609 31.9095C1.33943 30.2229 0.496093 28.0595 0.496094 25.4195C0.496094 24.5395 0.532761 23.7329 0.606094 22.9995C0.752761 22.1929 1.00943 21.2395 1.37609 20.1395C1.74276 19.0395 2.2561 17.6462 2.9161 15.9595L8.7461 0.339539L17.5461 0.33954ZM40.8661 0.339544L34.4861 24.7595L32.7261 16.5095C35.2928 16.5095 37.4194 17.3162 39.1061 18.9295C40.7928 20.5429 41.6361 22.7062 41.6361 25.4195C41.6361 28.1329 40.7928 30.3329 39.1061 32.0195C37.4194 33.6329 35.3294 34.4395 32.8361 34.4395C30.1961 34.4395 28.0328 33.5962 26.3461 31.9095C24.6594 30.2229 23.8161 28.0595 23.8161 25.4195C23.8161 24.5395 23.8528 23.7329 23.9261 22.9995C24.0728 22.1929 24.3294 21.2395 24.6961 20.1395C25.0628 19.0395 25.5761 17.6462 26.2361 15.9595L32.0661 0.339543L40.8661 0.339544Z" fill="#0152A8"/>
</svg>
